<mxfile host="app.diagrams.net" modified="2023-04-24T06:13:33.498Z" agent="Mozilla/5.0 (Windows NT 10.0; Win64; x64) AppleWebKit/537.36 (KHTML, like Gecko) Chrome/112.0.0.0 Safari/537.36" version="21.2.1" etag="xR--oeQQXthV5E_AsYyN" type="github">
  <diagram name="第 1 页" id="FmKNOgUKRqt3O8dHsSy0">
    <mxGraphModel>
      <root>
        <mxCell id="0" />
        <mxCell id="1" parent="0" />
      </root>
    </mxGraphModel>
  </diagram>
</mxfile>
